<svg width="74" height="74" xmlns="http://www.w3.org/2000/svg" fill="none">

  <g>
    <title>Layer 1</title>
    <path id="svg_1" fill="#D22856" d="m74,0l-37,37l-37,37l0,-33l41,-41l33,0z"/>
    <g>
      <path fill="white" d="m29.06192,35.36021l-0.9329,0.9329l-5.00776,-1.2084l1.17459,5.0416l-0.87007,0.8701l-1.34378,-6.0422l-5.56363,-1.1843l0.90874,-0.9087l4.55338,1.0441l-1.02958,-4.5679l0.8749,-0.8749l1.15527,5.5346l6.08084,1.3631zm-6.04701,-8.0868l0.76857,-0.7686l3.92984,3.9299c0.725,0.725 1.3583,1.4033 1.8996,2.035l0.0387,-0.0387l-1.9335,-9.86084l0.8991,-0.89907l7.0669,7.06691l-0.7734,0.7734l-3.8911,-3.8911c-0.6478,-0.64777 -1.3003,-1.35511 -1.9577,-2.12206l-0.0435,0.0435l1.9625,9.89946l-0.8991,0.8991l-7.06691,-7.0669zm16.78271,-2.6489l-0.8217,0.8217l-6.337,-6.33699l-2.2381,2.23802l-0.7298,-0.7299l5.2977,-5.29777l0.7299,0.72989l-2.238,2.23802l6.337,6.33703z"/>
    </g>
  </g>
</svg>
