<svg width="36" height="36" xmlns="http://www.w3.org/2000/svg" fill="none">

  <g>
    <title>Layer 1</title>
    <path id="svg_1" fill="white" d="m18,0c3.5601,0 7.0402,1.05568 10.0003,3.03355c2.9601,1.97786 5.2672,4.78908 6.6295,8.07815c1.3624,3.2891 1.7189,6.9083 1.0243,10.3999c-0.6945,3.4917 -2.4088,6.699 -4.9262,9.2163c-2.5173,2.5174 -5.7246,4.2317 -9.2163,4.9262c-3.4916,0.6946 -7.1108,0.3381 -10.3999,-1.0243c-3.28907,-1.3623 -6.10029,-3.6694 -8.07815,-6.6295c-1.97787,-2.9601 -3.03355,-6.4402 -3.03355,-10.0003c0,-4.7739 1.89642,-9.35227 5.27208,-12.72792c3.37565,-3.37566 7.95402,-5.27208 12.72792,-5.27208l0,0z"/>
    <g>
      <path fill="#D22856" d="m18.01017,10c1.58138,0.00201 3.12673,0.47265 4.44073,1.35248c1.314,0.87982 2.3378,2.12935 2.9421,3.59075c0.6042,1.46139 0.7618,3.06908 0.4528,4.61998c-0.309,1.55089 -1.0707,2.97539 -2.189,4.09359c-1.1182,1.1183 -2.5427,1.88 -4.09359,2.189c-1.5509,0.309 -3.15859,0.1514 -4.61998,-0.4528c-1.4614,-0.6043 -2.71093,-1.6281 -3.59075,-2.9421c-0.87982,-1.314 -1.35047,-2.85935 -1.35248,-4.44073c0,-2.12443 0.84393,-4.16185 2.34612,-5.66405c1.5022,-1.50219 3.53962,-2.34612 5.66405,-2.34612z"/>
    </g>
  </g>
</svg>
